<?xml version="1.0" encoding="UTF-8" standalone="no"?>
<svg xmlns="http://www.w3.org/2000/svg"
     xmlns:xlink="http://www.w3.org/1999/xlink"
     width="576pt" height="432pt" viewBox="0 0 576 432">
<title>gl2ps_renderer figure</title>
<desc>
Creator: GL2PS 1.4.0, (C) 1999-2017 C. Geuzaine
For: Octave
CreationDate: Thu Nov 29 13:53:32 2018
</desc>
<defs>
</defs>
<polygon fill="#ffffff" points="0,0 576,0 576,432 0,432"/>
<g>
<polygon fill="#ffffff" points="0,432 576,432 576,0 0,0" shape-rendering="crispEdges"/>
<clipPath id="cp00576432">
  <polygon points="0,432 576,432 576,0 0,0"/>
</clipPath>
<g clip-path="url(#cp00576432)">
<polygon fill="#ffffff" shape-rendering="crispEdges" points="74.88,47.9571 74.88,178.397 260.837,178.397"/>
<polygon fill="#ffffff" shape-rendering="crispEdges" points="74.88,47.9571 260.837,178.397 260.837,47.9571"/>
<polyline fill="none" stroke="#262626" stroke-width="0.5" stroke-linecap="butt" stroke-linejoin="miter" points="74.88,178.397 74.88,176.531"/>
<polyline fill="none" stroke="#262626" stroke-width="0.5" stroke-linecap="butt" stroke-linejoin="miter" points="74.88,47.9571 74.88,49.823"/>
<polyline fill="none" stroke="#262626" stroke-width="0.5" stroke-linecap="butt" stroke-linejoin="miter" points="102.227,178.397 102.227,176.531"/>
<polyline fill="none" stroke="#262626" stroke-width="0.5" stroke-linecap="butt" stroke-linejoin="miter" points="102.227,47.9571 102.227,49.823"/>
<polyline fill="none" stroke="#262626" stroke-width="0.5" stroke-linecap="butt" stroke-linejoin="miter" points="129.573,178.397 129.573,176.531"/>
<polyline fill="none" stroke="#262626" stroke-width="0.5" stroke-linecap="butt" stroke-linejoin="miter" points="129.573,47.9571 129.573,49.823"/>
<polyline fill="none" stroke="#262626" stroke-width="0.5" stroke-linecap="butt" stroke-linejoin="miter" points="156.92,178.397 156.92,176.531"/>
<polyline fill="none" stroke="#262626" stroke-width="0.5" stroke-linecap="butt" stroke-linejoin="miter" points="156.92,47.9571 156.92,49.823"/>
<polyline fill="none" stroke="#262626" stroke-width="0.5" stroke-linecap="butt" stroke-linejoin="miter" points="184.267,178.397 184.267,176.531"/>
<polyline fill="none" stroke="#262626" stroke-width="0.5" stroke-linecap="butt" stroke-linejoin="miter" points="184.267,47.9571 184.267,49.823"/>
<polyline fill="none" stroke="#262626" stroke-width="0.5" stroke-linecap="butt" stroke-linejoin="miter" points="211.613,178.397 211.613,176.531"/>
<polyline fill="none" stroke="#262626" stroke-width="0.5" stroke-linecap="butt" stroke-linejoin="miter" points="211.613,47.9571 211.613,49.823"/>
<polyline fill="none" stroke="#262626" stroke-width="0.5" stroke-linecap="butt" stroke-linejoin="miter" points="238.96,178.397 238.96,176.531"/>
<polyline fill="none" stroke="#262626" stroke-width="0.5" stroke-linecap="butt" stroke-linejoin="miter" points="238.96,47.9571 238.96,49.823"/>
<text xml:space="preserve" transform="translate(70.38,194.414) rotate(-0,4.5,-11)" font-family="FreeSans" font-weight="normal" font-style="normal" font-size="10"><tspan y="-1" fill="rgb(38,38,38)" x="0 3 ">-5</tspan></text>
<text xml:space="preserve" transform="translate(99.2266,194.414) rotate(-0,3,-11)" font-family="FreeSans" font-weight="normal" font-style="normal" font-size="10"><tspan y="-1" fill="rgb(38,38,38)" x="0 ">0</tspan></text>
<text xml:space="preserve" transform="translate(126.573,194.414) rotate(-0,3,-11)" font-family="FreeSans" font-weight="normal" font-style="normal" font-size="10"><tspan y="-1" fill="rgb(38,38,38)" x="0 ">5</tspan></text>
<text xml:space="preserve" transform="translate(150.92,194.414) rotate(-0,6,-11)" font-family="FreeSans" font-weight="normal" font-style="normal" font-size="10"><tspan y="-1" fill="rgb(38,38,38)" x="0 6 ">10</tspan></text>
<text xml:space="preserve" transform="translate(178.267,194.414) rotate(-0,6,-11)" font-family="FreeSans" font-weight="normal" font-style="normal" font-size="10"><tspan y="-1" fill="rgb(38,38,38)" x="0 6 ">15</tspan></text>
<text xml:space="preserve" transform="translate(205.613,194.414) rotate(-0,6,-11)" font-family="FreeSans" font-weight="normal" font-style="normal" font-size="10"><tspan y="-1" fill="rgb(38,38,38)" x="0 6 ">20</tspan></text>
<text xml:space="preserve" transform="translate(232.96,194.414) rotate(-0,6,-11)" font-family="FreeSans" font-weight="normal" font-style="normal" font-size="10"><tspan y="-1" fill="rgb(38,38,38)" x="0 6 ">25</tspan></text>
<polyline fill="none" stroke="#262626" stroke-width="0.5" stroke-linecap="butt" stroke-linejoin="miter" points="74.88,178.397 76.7391,178.397"/>
<polyline fill="none" stroke="#262626" stroke-width="0.5" stroke-linecap="butt" stroke-linejoin="miter" points="260.837,178.397 258.978,178.397"/>
<polyline fill="none" stroke="#262626" stroke-width="0.5" stroke-linecap="butt" stroke-linejoin="miter" points="74.88,152.309 76.7391,152.309"/>
<polyline fill="none" stroke="#262626" stroke-width="0.5" stroke-linecap="butt" stroke-linejoin="miter" points="260.837,152.309 258.978,152.309"/>
<polyline fill="none" stroke="#262626" stroke-width="0.5" stroke-linecap="butt" stroke-linejoin="miter" points="74.88,126.221 76.7391,126.221"/>
<polyline fill="none" stroke="#262626" stroke-width="0.5" stroke-linecap="butt" stroke-linejoin="miter" points="260.837,126.221 258.978,126.221"/>
<polyline fill="none" stroke="#262626" stroke-width="0.5" stroke-linecap="butt" stroke-linejoin="miter" points="74.88,100.133 76.7391,100.133"/>
<polyline fill="none" stroke="#262626" stroke-width="0.5" stroke-linecap="butt" stroke-linejoin="miter" points="260.837,100.133 258.978,100.133"/>
<polyline fill="none" stroke="#262626" stroke-width="0.5" stroke-linecap="butt" stroke-linejoin="miter" points="74.88,74.0451 76.7391,74.0451"/>
<polyline fill="none" stroke="#262626" stroke-width="0.5" stroke-linecap="butt" stroke-linejoin="miter" points="260.837,74.0451 258.978,74.0451"/>
<polyline fill="none" stroke="#262626" stroke-width="0.5" stroke-linecap="butt" stroke-linejoin="miter" points="74.88,47.9571 76.7391,47.9571"/>
<polyline fill="none" stroke="#262626" stroke-width="0.5" stroke-linecap="butt" stroke-linejoin="miter" points="260.837,47.9571 258.978,47.9571"/>
<text xml:space="preserve" transform="translate(63.8812,183.897) rotate(-0,6,-5.5)" font-family="FreeSans" font-weight="normal" font-style="normal" font-size="10"><tspan y="-1" fill="rgb(38,38,38)" x="0 ">0</tspan></text>
<text xml:space="preserve" transform="translate(54.8812,157.809) rotate(-0,15,-5.5)" font-family="FreeSans" font-weight="normal" font-style="normal" font-size="10"><tspan y="-1" fill="rgb(38,38,38)" x="0 6 9 ">0.2</tspan></text>
<text xml:space="preserve" transform="translate(54.8812,131.721) rotate(-0,15,-5.5)" font-family="FreeSans" font-weight="normal" font-style="normal" font-size="10"><tspan y="-1" fill="rgb(38,38,38)" x="0 6 9 ">0.4</tspan></text>
<text xml:space="preserve" transform="translate(54.8812,105.633) rotate(-0,15,-5.5)" font-family="FreeSans" font-weight="normal" font-style="normal" font-size="10"><tspan y="-1" fill="rgb(38,38,38)" x="0 6 9 ">0.6</tspan></text>
<text xml:space="preserve" transform="translate(54.8812,79.5451) rotate(-0,15,-5.5)" font-family="FreeSans" font-weight="normal" font-style="normal" font-size="10"><tspan y="-1" fill="rgb(38,38,38)" x="0 6 9 ">0.8</tspan></text>
<text xml:space="preserve" transform="translate(63.8812,53.4571) rotate(-0,6,-5.5)" font-family="FreeSans" font-weight="normal" font-style="normal" font-size="10"><tspan y="-1" fill="rgb(38,38,38)" x="0 ">1</tspan></text>
<polyline fill="none" stroke="#262626" stroke-width="0.5" stroke-linecap="square" stroke-linejoin="miter" stroke-dasharray="16,0" points="74.88,178.397 260.837,178.397"/>
<polyline fill="none" stroke="#262626" stroke-width="0.5" stroke-linecap="square" stroke-linejoin="miter" stroke-dasharray="16,0" points="74.88,47.9571 260.837,47.9571"/>
<polyline fill="none" stroke="#262626" stroke-width="0.5" stroke-linecap="square" stroke-linejoin="miter" stroke-dasharray="16,0" points="74.88,178.397 74.88,47.9571"/>
<polyline fill="none" stroke="#262626" stroke-width="0.5" stroke-linecap="square" stroke-linejoin="miter" stroke-dasharray="16,0" points="260.837,178.397 260.837,47.9571"/>
<text xml:space="preserve" transform="translate(98.3586,37.9571) rotate(-0,69.5,0)" font-family="Times New Roman" font-weight="bold" font-style="normal" font-size="12"><tspan y="-2" fill="rgb(0,0,0)" x="0 7 14 20 23 29 33 36 41 47 53 58 63 69 75 80 83 89 92 98 101 107 110 115 121 125 130 133 ">p=0.7: coverage 0.1 x rate 7</tspan></text>
<text xml:space="preserve" transform="translate(155.859,208.414) rotate(-0,12,-14)" font-family="Times New Roman" font-weight="normal" font-style="normal" font-size="12"><tspan y="-2" fill="rgb(38,38,38)" x="0 7 10 19 ">Time</tspan></text>
<polyline fill="none" stroke="#0071bc" stroke-width="2" stroke-linecap="butt" stroke-linejoin="round" points="74.694,155.241 74.88,155.24 75.9738,155.227 77.0677,155.215 78.1616,155.206 79.2554,155.191 80.3493,155.179 81.4432,155.158 82.537,155.144 83.6309,155.128 84.7248,155.11 85.8186,155.088 86.9125,155.078 88.0064,155.055 89.1002,155.029 90.1941,155.022 91.288,155.018 92.3818,154.983 93.4757,154.971 94.5695,154.961 95.6634,154.947 96.7573,154.934 97.8512,154.915 98.945,154.901 100.039,154.896 101.133,154.876 102.227,154.868 103.32,153.162 104.414,153.26 105.508,153.822 106.602,153.848 107.696,153.548 108.79,150.265 109.884,149.122 110.978,148.419 112.071,147.53 113.165,146.596 114.259,143.547 115.353,142.375 116.447,141.327 117.541,140.139 118.635,139.059 119.728,136.077 120.822,134.894 121.916,133.663 123.01,132.314 124.104,131.152 125.198,128.388 126.292,127.266 127.386,125.93 128.479,124.695 129.573,123.414 130.667,120.629 131.761,119.587 132.855,118.452 133.949,116.931 135.043,115.565 136.136,112.577 137.23,111.496 138.324,110.217 139.418,108.947 140.512,107.731 141.606,104.721 142.7,103.834 143.794,102.795 144.887,101.396 145.981,100.098 147.075,97.1839 148.169,96.5343 149.263,95.7465 150.357,94.5477 151.451,93.3555 152.544,90.298 153.638,89.9327 154.732,89.1149 155.826,88.01 156.92,86.9456 158.014,82.5224 159.108,80.2241 160.201,78.801 161.295,77.7809 162.389,77.1913 163.483,76.8691 164.577,76.6722 165.671,76.6044 166.765,76.6005 167.859,76.6305 168.952,76.6226 170.046,76.6213 171.14,76.6226 172.234,76.6278 173.328,76.6161 174.422,76.6096 175.516,76.5966 176.609,76.5809 177.703,76.5757 178.797,76.5731 179.891,76.5678 180.985,76.5483 182.079,76.5378 183.173,76.5365 184.267,76.5222 185.36,76.5078 186.454,76.4987 187.548,76.4805 188.642,76.4687 189.736,76.4635 190.83,76.4583 191.924,76.4335 193.017,76.427 194.111,76.4061 195.205,76.397 196.299,76.3852 197.393,76.3709 198.487,76.3618 199.581,76.3526 200.675,76.3474 201.768,76.3331 202.862,76.3226 203.956,76.3109 205.05,76.2991 206.144,76.29 207.238,76.2757 208.332,76.2548 209.425,76.2365 210.519,76.23 211.613,76.2156 212.707,76.2065 213.801,76.1974 214.895,76.1909 215.989,76.1765 217.082,76.1635 218.176,76.1517 219.27,76.1478 220.364,76.1322 221.458,76.1243 222.552,76.1113 223.646,76.1048 224.74,76.0995 225.833,76.0956 226.927,76.0761 228.021,76.0657 229.115,76.0539 230.209,76.0474 231.303,76.0396 232.397,76.0161 233.49,76.0056 234.584,75.9887 235.678,75.9678 236.772,75.96 237.866,75.9496 238.96,75.9378 240.054,75.93 241.148,75.9221 242.241,75.913 243.335,75.8961 244.429,75.8896 245.523,75.8791 246.617,75.87 247.711,75.8557 248.805,75.8491 249.898,75.8308 250.992,75.8191 252.086,75.8087 253.18,75.7917 254.274,75.7734 255.368,75.763 256.462,75.7526 257.556,75.7474 258.649,75.7304 259.743,75.7122 260.837,75.7056 261.023,75.7043"/>
<polyline fill="none" stroke="#d85218" stroke-width="2" stroke-linecap="butt" stroke-linejoin="round" points="74.694,162.297 74.88,162.285 75.9738,162.242 77.0677,162.196 78.1616,162.183 79.2554,162.161 80.3493,162.142 81.4432,162.127 82.537,162.103 83.6309,162.095 84.7248,162.1 85.8186,162.096 86.9125,162.088 88.0064,162.088 89.1002,162.095 90.1941,162.078 91.288,162.075 92.3818,162.069 93.4757,162.048 94.5695,162.036 95.6634,162.033 96.7573,162.031 97.8512,162.029 98.945,162.004 100.039,161.994 101.133,161.986 102.227,161.978 103.32,163.282 104.414,163.804 105.508,164.106 106.602,164.348 107.696,164.531 108.79,165.591 109.884,165.925 110.978,166.028 112.071,166.013 113.165,165.907 114.259,166.556 115.353,166.555 116.447,166.341 117.541,166.03 118.635,165.618 119.728,166.024 120.822,165.8 121.916,165.365 123.01,164.806 124.104,164.192 125.198,164.567 126.292,164.216 127.386,163.595 128.479,162.906 129.573,162.131 130.667,162.429 131.761,161.965 132.855,161.231 133.949,160.388 135.043,159.481 136.136,159.841 137.23,159.274 138.324,158.478 139.418,157.564 140.512,156.552 141.606,157.035 142.7,156.419 143.794,155.545 144.887,154.53 145.981,153.418 147.075,154.083 148.169,153.497 149.263,152.576 150.357,151.503 151.451,150.379 152.544,151.126 153.638,150.514 154.732,149.524 155.826,148.425 156.92,147.266 158.014,145.508 159.108,143.666 160.201,141.712 161.295,139.638 162.389,137.462 163.483,135.242 164.577,132.957 165.671,130.664 166.765,128.36 167.859,126.184 168.952,124.033 170.046,121.985 171.14,120.098 172.234,118.404 173.328,116.823 174.422,115.403 175.516,114.184 176.609,113.08 177.703,112.138 178.797,111.325 179.891,110.616 180.985,110.018 182.079,109.529 183.173,109.123 184.267,108.763 185.36,108.469 186.454,108.249 187.548,108.033 188.642,107.844 189.736,107.715 190.83,107.605 191.924,107.528 193.017,107.434 194.111,107.399 195.205,107.352 196.299,107.333 197.393,107.293 198.487,107.248 199.581,107.244 200.675,107.27 201.768,107.275 202.862,107.252 203.956,107.216 205.05,107.25 206.144,107.233 207.238,107.229 208.332,107.176 209.425,107.147 210.519,107.131 211.613,107.108 212.707,107.134 213.801,107.098 214.895,107.101 215.989,107.127 217.082,107.127 218.176,107.142 219.27,107.12 220.364,107.138 221.458,107.116 222.552,107.117 223.646,107.095 224.74,107.07 225.833,107.046 226.927,107.048 228.021,107.022 229.115,106.995 230.209,107.001 231.303,107.019 232.397,107.004 233.49,107.006 234.584,107.035 235.678,107.04 236.772,107.047 237.866,107.073 238.96,107.043 240.054,107.072 241.148,107.041 242.241,107.025 243.335,107.022 244.429,107.026 245.523,107.001 246.617,107.017 247.711,107.025 248.805,106.994 249.898,106.982 250.992,106.968 252.086,106.959 253.18,106.925 254.274,106.908 255.368,106.885 256.462,106.88 257.556,106.881 258.649,106.863 259.743,106.811 260.837,106.831 261.023,106.829"/>
<polyline fill="none" stroke="#000000" stroke-width="0.5" stroke-linecap="butt" stroke-linejoin="round" stroke-dasharray="4,4,4,4" points="102.227,178.397 102.227,47.8267"/>
<polyline fill="none" stroke="#000000" stroke-width="0.5" stroke-linecap="butt" stroke-linejoin="round" stroke-dasharray="4,4,4,4" points="156.92,178.397 156.92,47.8267"/>
</g>
<clipPath id="cp00576432">
  <polygon points="0,432 576,432 576,0 0,0"/>
</clipPath>
<g clip-path="url(#cp00576432)">
<polygon fill="#ffffff" shape-rendering="crispEdges" points="335.323,47.9571 335.323,178.397 521.28,178.397"/>
<polygon fill="#ffffff" shape-rendering="crispEdges" points="335.323,47.9571 521.28,178.397 521.28,47.9571"/>
<polyline fill="none" stroke="#262626" stroke-width="0.5" stroke-linecap="butt" stroke-linejoin="miter" points="335.323,178.397 335.323,176.531"/>
<polyline fill="none" stroke="#262626" stroke-width="0.5" stroke-linecap="butt" stroke-linejoin="miter" points="335.323,47.9571 335.323,49.823"/>
<polyline fill="none" stroke="#262626" stroke-width="0.5" stroke-linecap="butt" stroke-linejoin="miter" points="362.669,178.397 362.669,176.531"/>
<polyline fill="none" stroke="#262626" stroke-width="0.5" stroke-linecap="butt" stroke-linejoin="miter" points="362.669,47.9571 362.669,49.823"/>
<polyline fill="none" stroke="#262626" stroke-width="0.5" stroke-linecap="butt" stroke-linejoin="miter" points="390.016,178.397 390.016,176.531"/>
<polyline fill="none" stroke="#262626" stroke-width="0.5" stroke-linecap="butt" stroke-linejoin="miter" points="390.016,47.9571 390.016,49.823"/>
<polyline fill="none" stroke="#262626" stroke-width="0.5" stroke-linecap="butt" stroke-linejoin="miter" points="417.363,178.397 417.363,176.531"/>
<polyline fill="none" stroke="#262626" stroke-width="0.5" stroke-linecap="butt" stroke-linejoin="miter" points="417.363,47.9571 417.363,49.823"/>
<polyline fill="none" stroke="#262626" stroke-width="0.5" stroke-linecap="butt" stroke-linejoin="miter" points="444.709,178.397 444.709,176.531"/>
<polyline fill="none" stroke="#262626" stroke-width="0.5" stroke-linecap="butt" stroke-linejoin="miter" points="444.709,47.9571 444.709,49.823"/>
<polyline fill="none" stroke="#262626" stroke-width="0.5" stroke-linecap="butt" stroke-linejoin="miter" points="472.056,178.397 472.056,176.531"/>
<polyline fill="none" stroke="#262626" stroke-width="0.5" stroke-linecap="butt" stroke-linejoin="miter" points="472.056,47.9571 472.056,49.823"/>
<polyline fill="none" stroke="#262626" stroke-width="0.5" stroke-linecap="butt" stroke-linejoin="miter" points="499.403,178.397 499.403,176.531"/>
<polyline fill="none" stroke="#262626" stroke-width="0.5" stroke-linecap="butt" stroke-linejoin="miter" points="499.403,47.9571 499.403,49.823"/>
<text xml:space="preserve" transform="translate(330.823,194.414) rotate(-0,4.5,-11)" font-family="FreeSans" font-weight="normal" font-style="normal" font-size="10"><tspan y="-1" fill="rgb(38,38,38)" x="0 3 ">-5</tspan></text>
<text xml:space="preserve" transform="translate(359.669,194.414) rotate(-0,3,-11)" font-family="FreeSans" font-weight="normal" font-style="normal" font-size="10"><tspan y="-1" fill="rgb(38,38,38)" x="0 ">0</tspan></text>
<text xml:space="preserve" transform="translate(387.016,194.414) rotate(-0,3,-11)" font-family="FreeSans" font-weight="normal" font-style="normal" font-size="10"><tspan y="-1" fill="rgb(38,38,38)" x="0 ">5</tspan></text>
<text xml:space="preserve" transform="translate(411.363,194.414) rotate(-0,6,-11)" font-family="FreeSans" font-weight="normal" font-style="normal" font-size="10"><tspan y="-1" fill="rgb(38,38,38)" x="0 6 ">10</tspan></text>
<text xml:space="preserve" transform="translate(438.709,194.414) rotate(-0,6,-11)" font-family="FreeSans" font-weight="normal" font-style="normal" font-size="10"><tspan y="-1" fill="rgb(38,38,38)" x="0 6 ">15</tspan></text>
<text xml:space="preserve" transform="translate(466.056,194.414) rotate(-0,6,-11)" font-family="FreeSans" font-weight="normal" font-style="normal" font-size="10"><tspan y="-1" fill="rgb(38,38,38)" x="0 6 ">20</tspan></text>
<text xml:space="preserve" transform="translate(493.403,194.414) rotate(-0,6,-11)" font-family="FreeSans" font-weight="normal" font-style="normal" font-size="10"><tspan y="-1" fill="rgb(38,38,38)" x="0 6 ">25</tspan></text>
<polyline fill="none" stroke="#262626" stroke-width="0.5" stroke-linecap="butt" stroke-linejoin="miter" points="335.323,178.397 337.182,178.397"/>
<polyline fill="none" stroke="#262626" stroke-width="0.5" stroke-linecap="butt" stroke-linejoin="miter" points="521.28,178.397 519.421,178.397"/>
<polyline fill="none" stroke="#262626" stroke-width="0.5" stroke-linecap="butt" stroke-linejoin="miter" points="335.323,152.309 337.182,152.309"/>
<polyline fill="none" stroke="#262626" stroke-width="0.5" stroke-linecap="butt" stroke-linejoin="miter" points="521.28,152.309 519.421,152.309"/>
<polyline fill="none" stroke="#262626" stroke-width="0.5" stroke-linecap="butt" stroke-linejoin="miter" points="335.323,126.221 337.182,126.221"/>
<polyline fill="none" stroke="#262626" stroke-width="0.5" stroke-linecap="butt" stroke-linejoin="miter" points="521.28,126.221 519.421,126.221"/>
<polyline fill="none" stroke="#262626" stroke-width="0.5" stroke-linecap="butt" stroke-linejoin="miter" points="335.323,100.133 337.182,100.133"/>
<polyline fill="none" stroke="#262626" stroke-width="0.5" stroke-linecap="butt" stroke-linejoin="miter" points="521.28,100.133 519.421,100.133"/>
<polyline fill="none" stroke="#262626" stroke-width="0.5" stroke-linecap="butt" stroke-linejoin="miter" points="335.323,74.0451 337.182,74.0451"/>
<polyline fill="none" stroke="#262626" stroke-width="0.5" stroke-linecap="butt" stroke-linejoin="miter" points="521.28,74.0451 519.421,74.0451"/>
<polyline fill="none" stroke="#262626" stroke-width="0.5" stroke-linecap="butt" stroke-linejoin="miter" points="335.323,47.9571 337.182,47.9571"/>
<polyline fill="none" stroke="#262626" stroke-width="0.5" stroke-linecap="butt" stroke-linejoin="miter" points="521.28,47.9571 519.421,47.9571"/>
<text xml:space="preserve" transform="translate(324.324,183.897) rotate(-0,6,-5.5)" font-family="FreeSans" font-weight="normal" font-style="normal" font-size="10"><tspan y="-1" fill="rgb(38,38,38)" x="0 ">0</tspan></text>
<text xml:space="preserve" transform="translate(315.324,157.809) rotate(-0,15,-5.5)" font-family="FreeSans" font-weight="normal" font-style="normal" font-size="10"><tspan y="-1" fill="rgb(38,38,38)" x="0 6 9 ">0.2</tspan></text>
<text xml:space="preserve" transform="translate(315.324,131.721) rotate(-0,15,-5.5)" font-family="FreeSans" font-weight="normal" font-style="normal" font-size="10"><tspan y="-1" fill="rgb(38,38,38)" x="0 6 9 ">0.4</tspan></text>
<text xml:space="preserve" transform="translate(315.324,105.633) rotate(-0,15,-5.5)" font-family="FreeSans" font-weight="normal" font-style="normal" font-size="10"><tspan y="-1" fill="rgb(38,38,38)" x="0 6 9 ">0.6</tspan></text>
<text xml:space="preserve" transform="translate(315.324,79.5451) rotate(-0,15,-5.5)" font-family="FreeSans" font-weight="normal" font-style="normal" font-size="10"><tspan y="-1" fill="rgb(38,38,38)" x="0 6 9 ">0.8</tspan></text>
<text xml:space="preserve" transform="translate(324.324,53.4571) rotate(-0,6,-5.5)" font-family="FreeSans" font-weight="normal" font-style="normal" font-size="10"><tspan y="-1" fill="rgb(38,38,38)" x="0 ">1</tspan></text>
<polyline fill="none" stroke="#262626" stroke-width="0.5" stroke-linecap="square" stroke-linejoin="miter" stroke-dasharray="16,0" points="335.323,178.397 521.28,178.397"/>
<polyline fill="none" stroke="#262626" stroke-width="0.5" stroke-linecap="square" stroke-linejoin="miter" stroke-dasharray="16,0" points="335.323,47.9571 521.28,47.9571"/>
<polyline fill="none" stroke="#262626" stroke-width="0.5" stroke-linecap="square" stroke-linejoin="miter" stroke-dasharray="16,0" points="335.323,178.397 335.323,47.9571"/>
<polyline fill="none" stroke="#262626" stroke-width="0.5" stroke-linecap="square" stroke-linejoin="miter" stroke-dasharray="16,0" points="521.28,178.397 521.28,47.9571"/>
<text xml:space="preserve" transform="translate(354.301,37.9571) rotate(-0,74,0)" font-family="Times New Roman" font-weight="bold" font-style="normal" font-size="12"><tspan y="-2" fill="rgb(0,0,0)" x="0 7 14 20 23 29 33 36 41 47 53 58 63 69 75 80 83 89 92 98 101 107 110 115 121 125 130 133 139 142 ">p=0.7: coverage 0.2 x rate 3.5</tspan></text>
<text xml:space="preserve" transform="translate(416.301,208.414) rotate(-0,12,-14)" font-family="Times New Roman" font-weight="normal" font-style="normal" font-size="12"><tspan y="-2" fill="rgb(38,38,38)" x="0 7 10 19 ">Time</tspan></text>
<polyline fill="none" stroke="#0071bc" stroke-width="2" stroke-linecap="butt" stroke-linejoin="round" points="335.137,155.255 335.323,155.253 336.417,155.234 337.511,155.226 338.604,155.215 339.698,155.201 340.792,155.193 341.886,155.181 342.98,155.168 344.074,155.161 345.168,155.145 346.262,155.137 347.355,155.129 348.449,155.123 349.543,155.108 350.637,155.09 351.731,155.073 352.825,155.059 353.919,155.048 355.012,155.026 356.106,155.009 357.2,155 358.294,154.984 359.388,154.973 360.482,154.964 361.576,154.941 362.669,154.911 363.763,152.387 364.857,149.584 365.951,149.019 367.045,149.181 368.139,149.22 369.233,145.138 370.327,142.06 371.42,140.469 372.514,139.484 373.608,138.563 374.702,134.92 375.796,132.551 376.89,130.995 377.984,129.708 379.077,128.269 380.171,125.295 381.265,123.379 382.359,122.17 383.453,120.774 384.547,119.307 385.641,116.789 386.735,115.254 387.828,114.11 388.922,112.809 390.016,111.296 391.11,109.023 392.204,107.676 393.298,106.547 394.392,105.48 395.485,103.937 396.579,101.762 397.673,100.849 398.767,100.187 399.861,99.2748 400.955,97.7656 402.049,95.7764 403.143,94.8033 404.236,94.2477 405.33,93.2054 406.424,91.7915 407.518,89.724 408.612,89.1944 409.706,88.7992 410.8,87.9227 411.893,86.8374 412.987,84.6499 414.081,84.2051 415.175,84.0016 416.269,83.3846 417.363,82.4155 418.457,77.1613 419.55,73.2964 420.644,70.5154 421.738,68.1766 422.832,66.2774 423.926,64.8674 425.02,63.936 426.114,63.2943 427.208,62.946 428.301,62.7569 429.395,62.7073 430.489,62.7112 431.583,62.7164 432.677,62.7308 433.771,62.7334 434.865,62.7777 435.958,62.7842 437.052,62.8142 438.146,62.8064 439.24,62.7986 440.334,62.7908 441.428,62.7816 442.522,62.7777 443.616,62.7699 444.709,62.7595 445.803,62.7503 446.897,62.7334 447.991,62.7256 449.085,62.7203 450.179,62.706 451.273,62.6982 452.366,62.6877 453.46,62.6786 454.554,62.6721 455.648,62.6642 456.742,62.6551 457.836,62.6447 458.93,62.6356 460.023,62.629 461.117,62.6186 462.211,62.6029 463.305,62.599 464.399,62.5899 465.493,62.586 466.587,62.5768 467.681,62.5612 468.774,62.5547 469.868,62.5508 470.962,62.539 472.056,62.5351 473.15,62.5273 474.244,62.5129 475.338,62.5077 476.431,62.5038 477.525,62.4973 478.619,62.4934 479.713,62.4882 480.807,62.4803 481.901,62.4725 482.995,62.4712 484.089,62.4581 485.182,62.4503 486.276,62.4516 487.37,62.4386 488.464,62.4243 489.558,62.419 490.652,62.4047 491.746,62.3982 492.839,62.3942 493.933,62.3864 495.027,62.3747 496.121,62.3616 497.215,62.3473 498.309,62.3355 499.403,62.3277 500.497,62.3173 501.59,62.3029 502.684,62.3016 503.778,62.299 504.872,62.2847 505.966,62.2755 507.06,62.2651 508.154,62.2521 509.247,62.2481 510.341,62.2403 511.435,62.2377 512.529,62.2312 513.623,62.2233 514.717,62.2142 515.811,62.209 516.905,62.196 517.998,62.1881 519.092,62.1816 520.186,62.1751 521.28,62.1673 521.466,62.166"/>
<polyline fill="none" stroke="#d85218" stroke-width="2" stroke-linecap="butt" stroke-linejoin="round" points="335.137,162.379 335.323,162.364 336.417,162.293 337.511,162.243 338.604,162.216 339.698,162.196 340.792,162.155 341.886,162.13 342.98,162.113 344.074,162.112 345.168,162.09 346.262,162.071 347.355,162.07 348.449,162.075 349.543,162.072 350.637,162.07 351.731,162.052 352.825,162.056 353.919,162.055 355.012,162.059 356.106,162.048 357.2,162.034 358.294,162.031 359.388,162.029 360.482,162.035 361.576,162.033 362.669,162.028 363.763,163.691 364.857,164.675 365.951,165.387 367.045,165.912 368.139,166.323 369.233,167.432 370.327,168.001 371.42,168.244 372.514,168.319 373.608,168.244 374.702,168.827 375.796,168.972 376.89,168.88 377.984,168.627 379.077,168.239 380.171,168.601 381.265,168.568 382.359,168.303 383.453,167.867 384.547,167.33 385.641,167.679 386.735,167.589 387.828,167.233 388.922,166.734 390.016,166.121 391.11,166.455 392.204,166.343 393.298,165.954 394.392,165.42 395.485,164.744 396.579,165.14 397.673,165.01 398.767,164.589 399.861,164.015 400.955,163.281 402.049,163.744 403.143,163.636 404.236,163.231 405.33,162.604 406.424,161.848 407.518,162.426 408.612,162.355 409.706,161.925 410.8,161.259 411.893,160.49 412.987,161.111 414.081,161.061 415.175,160.629 416.269,159.978 417.363,159.203 418.457,157.678 419.55,156.023 420.644,154.195 421.738,152.171 422.832,149.937 423.926,147.472 425.02,144.797 426.114,141.965 427.208,138.974 428.301,135.838 429.395,132.655 430.489,129.429 431.583,126.248 432.677,123.107 433.771,120.129 434.865,117.357 435.958,114.746 437.052,112.406 438.146,110.288 439.24,108.398 440.334,106.729 441.428,105.22 442.522,103.901 443.616,102.804 444.709,101.873 445.803,101.095 446.897,100.445 447.991,99.8834 449.085,99.4151 450.179,99.072 451.273,98.8005 452.366,98.5778 453.46,98.3841 454.554,98.2564 455.648,98.1269 456.742,98.0135 457.836,97.9565 458.93,97.911 460.023,97.847 461.117,97.8246 462.211,97.7771 463.305,97.7687 464.399,97.7546 465.493,97.73 466.587,97.7235 467.681,97.7011 468.774,97.6742 469.868,97.6749 470.962,97.6351 472.056,97.6268 473.15,97.6025 474.244,97.597 475.338,97.6021 476.431,97.6329 477.525,97.6246 478.619,97.6215 479.713,97.6328 480.807,97.619 481.901,97.5955 482.995,97.6047 484.089,97.5895 485.182,97.566 486.276,97.5712 487.37,97.5316 488.464,97.5327 489.558,97.5277 490.652,97.5315 491.746,97.5388 492.839,97.5124 493.933,97.5065 495.027,97.5367 496.121,97.5403 497.215,97.5185 498.309,97.5473 499.403,97.5615 500.497,97.571 501.59,97.5685 502.684,97.5239 503.778,97.5236 504.872,97.5398 505.966,97.5479 507.06,97.528 508.154,97.4897 509.247,97.4838 510.341,97.4729 511.435,97.4678 512.529,97.441 513.623,97.4246 514.717,97.456 515.811,97.4652 516.905,97.4838 517.998,97.4867 519.092,97.4697 520.186,97.4693 521.28,97.4615 521.466,97.4664"/>
<polyline fill="none" stroke="#000000" stroke-width="0.5" stroke-linecap="butt" stroke-linejoin="round" stroke-dasharray="4,4,4,4" points="362.669,178.397 362.669,47.8267"/>
<polyline fill="none" stroke="#000000" stroke-width="0.5" stroke-linecap="butt" stroke-linejoin="round" stroke-dasharray="4,4,4,4" points="417.363,178.397 417.363,47.8267"/>
</g>
<clipPath id="cp00576432">
  <polygon points="0,432 576,432 576,0 0,0"/>
</clipPath>
<g clip-path="url(#cp00576432)">
<polygon fill="#ffffff" shape-rendering="crispEdges" points="74.88,254.04 74.88,384.48 260.837,384.48"/>
<polygon fill="#ffffff" shape-rendering="crispEdges" points="74.88,254.04 260.837,384.48 260.837,254.04"/>
<polyline fill="none" stroke="#262626" stroke-width="0.5" stroke-linecap="butt" stroke-linejoin="miter" points="74.88,384.48 74.88,382.614"/>
<polyline fill="none" stroke="#262626" stroke-width="0.5" stroke-linecap="butt" stroke-linejoin="miter" points="74.88,254.04 74.88,255.906"/>
<polyline fill="none" stroke="#262626" stroke-width="0.5" stroke-linecap="butt" stroke-linejoin="miter" points="102.227,384.48 102.227,382.614"/>
<polyline fill="none" stroke="#262626" stroke-width="0.5" stroke-linecap="butt" stroke-linejoin="miter" points="102.227,254.04 102.227,255.906"/>
<polyline fill="none" stroke="#262626" stroke-width="0.5" stroke-linecap="butt" stroke-linejoin="miter" points="129.573,384.48 129.573,382.614"/>
<polyline fill="none" stroke="#262626" stroke-width="0.5" stroke-linecap="butt" stroke-linejoin="miter" points="129.573,254.04 129.573,255.906"/>
<polyline fill="none" stroke="#262626" stroke-width="0.5" stroke-linecap="butt" stroke-linejoin="miter" points="156.92,384.48 156.92,382.614"/>
<polyline fill="none" stroke="#262626" stroke-width="0.5" stroke-linecap="butt" stroke-linejoin="miter" points="156.92,254.04 156.92,255.906"/>
<polyline fill="none" stroke="#262626" stroke-width="0.5" stroke-linecap="butt" stroke-linejoin="miter" points="184.267,384.48 184.267,382.614"/>
<polyline fill="none" stroke="#262626" stroke-width="0.5" stroke-linecap="butt" stroke-linejoin="miter" points="184.267,254.04 184.267,255.906"/>
<polyline fill="none" stroke="#262626" stroke-width="0.5" stroke-linecap="butt" stroke-linejoin="miter" points="211.613,384.48 211.613,382.614"/>
<polyline fill="none" stroke="#262626" stroke-width="0.5" stroke-linecap="butt" stroke-linejoin="miter" points="211.613,254.04 211.613,255.906"/>
<polyline fill="none" stroke="#262626" stroke-width="0.5" stroke-linecap="butt" stroke-linejoin="miter" points="238.96,384.48 238.96,382.614"/>
<polyline fill="none" stroke="#262626" stroke-width="0.5" stroke-linecap="butt" stroke-linejoin="miter" points="238.96,254.04 238.96,255.906"/>
<text xml:space="preserve" transform="translate(70.38,400.497) rotate(-0,4.5,-11)" font-family="FreeSans" font-weight="normal" font-style="normal" font-size="10"><tspan y="-1" fill="rgb(38,38,38)" x="0 3 ">-5</tspan></text>
<text xml:space="preserve" transform="translate(99.2266,400.497) rotate(-0,3,-11)" font-family="FreeSans" font-weight="normal" font-style="normal" font-size="10"><tspan y="-1" fill="rgb(38,38,38)" x="0 ">0</tspan></text>
<text xml:space="preserve" transform="translate(126.573,400.497) rotate(-0,3,-11)" font-family="FreeSans" font-weight="normal" font-style="normal" font-size="10"><tspan y="-1" fill="rgb(38,38,38)" x="0 ">5</tspan></text>
<text xml:space="preserve" transform="translate(150.92,400.497) rotate(-0,6,-11)" font-family="FreeSans" font-weight="normal" font-style="normal" font-size="10"><tspan y="-1" fill="rgb(38,38,38)" x="0 6 ">10</tspan></text>
<text xml:space="preserve" transform="translate(178.267,400.497) rotate(-0,6,-11)" font-family="FreeSans" font-weight="normal" font-style="normal" font-size="10"><tspan y="-1" fill="rgb(38,38,38)" x="0 6 ">15</tspan></text>
<text xml:space="preserve" transform="translate(205.613,400.497) rotate(-0,6,-11)" font-family="FreeSans" font-weight="normal" font-style="normal" font-size="10"><tspan y="-1" fill="rgb(38,38,38)" x="0 6 ">20</tspan></text>
<text xml:space="preserve" transform="translate(232.96,400.497) rotate(-0,6,-11)" font-family="FreeSans" font-weight="normal" font-style="normal" font-size="10"><tspan y="-1" fill="rgb(38,38,38)" x="0 6 ">25</tspan></text>
<polyline fill="none" stroke="#262626" stroke-width="0.5" stroke-linecap="butt" stroke-linejoin="miter" points="74.88,384.48 76.7391,384.48"/>
<polyline fill="none" stroke="#262626" stroke-width="0.5" stroke-linecap="butt" stroke-linejoin="miter" points="260.837,384.48 258.978,384.48"/>
<polyline fill="none" stroke="#262626" stroke-width="0.5" stroke-linecap="butt" stroke-linejoin="miter" points="74.88,358.392 76.7391,358.392"/>
<polyline fill="none" stroke="#262626" stroke-width="0.5" stroke-linecap="butt" stroke-linejoin="miter" points="260.837,358.392 258.978,358.392"/>
<polyline fill="none" stroke="#262626" stroke-width="0.5" stroke-linecap="butt" stroke-linejoin="miter" points="74.88,332.304 76.7391,332.304"/>
<polyline fill="none" stroke="#262626" stroke-width="0.5" stroke-linecap="butt" stroke-linejoin="miter" points="260.837,332.304 258.978,332.304"/>
<polyline fill="none" stroke="#262626" stroke-width="0.5" stroke-linecap="butt" stroke-linejoin="miter" points="74.88,306.216 76.7391,306.216"/>
<polyline fill="none" stroke="#262626" stroke-width="0.5" stroke-linecap="butt" stroke-linejoin="miter" points="260.837,306.216 258.978,306.216"/>
<polyline fill="none" stroke="#262626" stroke-width="0.5" stroke-linecap="butt" stroke-linejoin="miter" points="74.88,280.128 76.7391,280.128"/>
<polyline fill="none" stroke="#262626" stroke-width="0.5" stroke-linecap="butt" stroke-linejoin="miter" points="260.837,280.128 258.978,280.128"/>
<polyline fill="none" stroke="#262626" stroke-width="0.5" stroke-linecap="butt" stroke-linejoin="miter" points="74.88,254.04 76.7391,254.04"/>
<polyline fill="none" stroke="#262626" stroke-width="0.5" stroke-linecap="butt" stroke-linejoin="miter" points="260.837,254.04 258.978,254.04"/>
<text xml:space="preserve" transform="translate(63.8812,389.98) rotate(-0,6,-5.5)" font-family="FreeSans" font-weight="normal" font-style="normal" font-size="10"><tspan y="-1" fill="rgb(38,38,38)" x="0 ">0</tspan></text>
<text xml:space="preserve" transform="translate(54.8812,363.892) rotate(-0,15,-5.5)" font-family="FreeSans" font-weight="normal" font-style="normal" font-size="10"><tspan y="-1" fill="rgb(38,38,38)" x="0 6 9 ">0.2</tspan></text>
<text xml:space="preserve" transform="translate(54.8812,337.804) rotate(-0,15,-5.5)" font-family="FreeSans" font-weight="normal" font-style="normal" font-size="10"><tspan y="-1" fill="rgb(38,38,38)" x="0 6 9 ">0.4</tspan></text>
<text xml:space="preserve" transform="translate(54.8812,311.716) rotate(-0,15,-5.5)" font-family="FreeSans" font-weight="normal" font-style="normal" font-size="10"><tspan y="-1" fill="rgb(38,38,38)" x="0 6 9 ">0.6</tspan></text>
<text xml:space="preserve" transform="translate(54.8812,285.628) rotate(-0,15,-5.5)" font-family="FreeSans" font-weight="normal" font-style="normal" font-size="10"><tspan y="-1" fill="rgb(38,38,38)" x="0 6 9 ">0.8</tspan></text>
<text xml:space="preserve" transform="translate(63.8812,259.54) rotate(-0,6,-5.5)" font-family="FreeSans" font-weight="normal" font-style="normal" font-size="10"><tspan y="-1" fill="rgb(38,38,38)" x="0 ">1</tspan></text>
<polyline fill="none" stroke="#262626" stroke-width="0.5" stroke-linecap="square" stroke-linejoin="miter" stroke-dasharray="16,0" points="74.88,384.48 260.837,384.48"/>
<polyline fill="none" stroke="#262626" stroke-width="0.5" stroke-linecap="square" stroke-linejoin="miter" stroke-dasharray="16,0" points="74.88,254.04 260.837,254.04"/>
<polyline fill="none" stroke="#262626" stroke-width="0.5" stroke-linecap="square" stroke-linejoin="miter" stroke-dasharray="16,0" points="74.88,384.48 74.88,254.04"/>
<polyline fill="none" stroke="#262626" stroke-width="0.5" stroke-linecap="square" stroke-linejoin="miter" stroke-dasharray="16,0" points="260.837,384.48 260.837,254.04"/>
<text xml:space="preserve" transform="translate(93.8586,244.04) rotate(-0,74,0)" font-family="Times New Roman" font-weight="bold" font-style="normal" font-size="12"><tspan y="-2" fill="rgb(0,0,0)" x="0 7 14 20 23 29 33 36 41 47 53 58 63 69 75 80 83 89 92 98 101 107 110 115 121 125 130 133 139 142 ">p=0.7: coverage 0.5 x rate 1.4</tspan></text>
<text xml:space="preserve" transform="translate(155.859,414.497) rotate(-0,12,-14)" font-family="Times New Roman" font-weight="normal" font-style="normal" font-size="12"><tspan y="-2" fill="rgb(38,38,38)" x="0 7 10 19 ">Time</tspan></text>
<polyline fill="none" stroke="#0071bc" stroke-width="2" stroke-linecap="butt" stroke-linejoin="round" points="74.694,361.366 74.88,361.363 75.9738,361.346 77.0677,361.33 78.1616,361.316 79.2554,361.314 80.3493,361.302 81.4432,361.288 82.537,361.275 83.6309,361.266 84.7248,361.251 85.8186,361.242 86.9125,361.233 88.0064,361.215 89.1002,361.199 90.1941,361.176 91.288,361.168 92.3818,361.163 93.4757,361.143 94.5695,361.123 95.6634,361.11 96.7573,361.101 97.8512,361.088 98.945,361.076 100.039,361.067 101.133,361.058 102.227,361.04 103.32,359.887 104.414,354.072 105.508,348.115 106.602,344.179 107.696,341.611 108.79,337.578 109.884,333.624 110.978,331.01 112.071,329.423 113.165,328.44 114.259,327.264 115.353,326.433 116.447,326.258 117.541,326.515 118.635,326.85 119.728,326.809 120.822,327.393 121.916,328.123 123.01,329.021 124.104,329.704 125.198,330.384 126.292,331.307 127.386,332.265 128.479,333.354 129.573,334.124 130.667,334.898 131.761,336.08 132.855,337.37 133.949,338.396 135.043,339.125 136.136,340.202 137.23,341.614 138.324,342.787 139.418,343.907 140.512,344.658 141.606,345.849 142.7,346.937 143.794,348.079 144.887,349.019 145.981,349.563 147.075,350.795 148.169,351.811 149.263,352.816 150.357,353.744 151.451,354.437 152.544,355.314 153.638,356.288 154.732,357.172 155.826,358.005 156.92,358.445 158.014,356.94 159.108,355.222 160.201,353.538 161.295,351.651 162.389,349.78 163.483,347.589 164.577,345.473 165.671,343.339 166.765,341.147 167.859,339.159 168.952,337.653 170.046,336.365 171.14,335.514 172.234,334.969 173.328,334.729 174.422,334.63 175.516,334.626 176.609,334.679 177.703,334.709 178.797,334.743 179.891,334.748 180.985,334.762 182.079,334.733 183.173,334.722 184.267,334.738 185.36,334.733 186.454,334.72 187.548,334.715 188.642,334.7 189.736,334.698 190.83,334.682 191.924,334.661 193.017,334.644 194.111,334.627 195.205,334.617 196.299,334.604 197.393,334.591 198.487,334.571 199.581,334.555 200.675,334.541 201.768,334.528 202.862,334.514 203.956,334.497 205.05,334.488 206.144,334.468 207.238,334.446 208.332,334.434 209.425,334.42 210.519,334.407 211.613,334.387 212.707,334.378 213.801,334.357 214.895,334.338 215.989,334.326 217.082,334.311 218.176,334.295 219.27,334.28 220.364,334.267 221.458,334.246 222.552,334.228 223.646,334.216 224.74,334.201 225.833,334.191 226.927,334.182 228.021,334.168 229.115,334.152 230.209,334.137 231.303,334.118 232.397,334.105 233.49,334.087 234.584,334.069 235.678,334.058 236.772,334.041 237.866,334.019 238.96,334.014 240.054,333.996 241.148,333.983 242.241,333.965 243.335,333.958 244.429,333.942 245.523,333.925 246.617,333.908 247.711,333.898 248.805,333.877 249.898,333.855 250.992,333.842 252.086,333.822 253.18,333.817 254.274,333.801 255.368,333.79 256.462,333.77 257.556,333.753 258.649,333.735 259.743,333.717 260.837,333.697 261.023,333.696"/>
<polyline fill="none" stroke="#d85218" stroke-width="2" stroke-linecap="butt" stroke-linejoin="round" points="74.694,368.443 74.88,368.43 75.9738,368.372 77.0677,368.33 78.1616,368.298 79.2554,368.297 80.3493,368.287 81.4432,368.287 82.537,368.29 83.6309,368.279 84.7248,368.27 85.8186,368.268 86.9125,368.256 88.0064,368.247 89.1002,368.234 90.1941,368.215 91.288,368.196 92.3818,368.2 93.4757,368.187 94.5695,368.184 95.6634,368.173 96.7573,368.166 97.8512,368.166 98.945,368.145 100.039,368.136 101.133,368.121 102.227,368.093 103.32,370.099 104.414,371.553 105.508,372.679 106.602,373.558 107.696,374.313 108.79,375.212 109.884,375.763 110.978,376.157 112.071,376.397 113.165,376.549 114.259,376.991 115.353,377.295 116.447,377.496 117.541,377.603 118.635,377.651 119.728,378.014 120.822,378.267 121.916,378.426 123.01,378.526 124.104,378.547 125.198,378.861 126.292,379.091 127.386,379.236 128.479,379.333 129.573,379.362 130.667,379.652 131.761,379.87 132.855,380.002 133.949,380.092 135.043,380.122 136.136,380.376 137.23,380.573 138.324,380.704 139.418,380.774 140.512,380.796 141.606,381.016 142.7,381.178 143.794,381.28 144.887,381.344 145.981,381.351 147.075,381.544 148.169,381.68 149.263,381.772 150.357,381.821 151.451,381.849 152.544,381.995 153.638,382.108 154.732,382.189 155.826,382.234 156.92,382.243 158.014,382.068 159.108,381.855 160.201,381.61 161.295,381.323 162.389,380.976 163.483,380.566 164.577,380.073 165.671,379.513 166.765,378.856 167.859,378.086 168.952,377.213 170.046,376.218 171.14,375.087 172.234,373.842 173.328,372.461 174.422,371.013 175.516,369.477 176.609,367.892 177.703,366.281 178.797,364.668 179.891,363.106 180.985,361.616 182.079,360.187 183.173,358.835 184.267,357.587 185.36,356.426 186.454,355.401 187.548,354.507 188.642,353.72 189.736,353.019 190.83,352.435 191.924,351.914 193.017,351.494 194.111,351.145 195.205,350.837 196.299,350.574 197.393,350.369 198.487,350.185 199.581,350.054 200.675,349.932 201.768,349.829 202.862,349.771 203.956,349.709 205.05,349.682 206.144,349.65 207.238,349.635 208.332,349.615 209.425,349.6 210.519,349.605 211.613,349.604 212.707,349.575 213.801,349.538 214.895,349.53 215.989,349.52 217.082,349.507 218.176,349.495 219.27,349.505 220.364,349.472 221.458,349.451 222.552,349.439 223.646,349.43 224.74,349.425 225.833,349.399 226.927,349.391 228.021,349.362 229.115,349.366 230.209,349.359 231.303,349.351 232.397,349.324 233.49,349.311 234.584,349.294 235.678,349.276 236.772,349.274 237.866,349.269 238.96,349.242 240.054,349.25 241.148,349.233 242.241,349.233 243.335,349.244 244.429,349.243 245.523,349.23 246.617,349.227 247.711,349.209 248.805,349.193 249.898,349.205 250.992,349.192 252.086,349.201 253.18,349.183 254.274,349.167 255.368,349.164 256.462,349.163 257.556,349.169 258.649,349.157 259.743,349.12 260.837,349.117 261.023,349.113"/>
<polyline fill="none" stroke="#000000" stroke-width="0.5" stroke-linecap="butt" stroke-linejoin="round" stroke-dasharray="4,4,4,4" points="102.227,384.48 102.227,253.91"/>
<polyline fill="none" stroke="#000000" stroke-width="0.5" stroke-linecap="butt" stroke-linejoin="round" stroke-dasharray="4,4,4,4" points="156.92,384.48 156.92,253.91"/>
</g>
<clipPath id="cp00576432">
  <polygon points="0,432 576,432 576,0 0,0"/>
</clipPath>
<g clip-path="url(#cp00576432)">
<polygon fill="#ffffff" shape-rendering="crispEdges" points="335.323,254.04 335.323,384.48 521.28,384.48"/>
<polygon fill="#ffffff" shape-rendering="crispEdges" points="335.323,254.04 521.28,384.48 521.28,254.04"/>
<polyline fill="none" stroke="#262626" stroke-width="0.5" stroke-linecap="butt" stroke-linejoin="miter" points="335.323,384.48 335.323,382.614"/>
<polyline fill="none" stroke="#262626" stroke-width="0.5" stroke-linecap="butt" stroke-linejoin="miter" points="335.323,254.04 335.323,255.906"/>
<polyline fill="none" stroke="#262626" stroke-width="0.5" stroke-linecap="butt" stroke-linejoin="miter" points="362.669,384.48 362.669,382.614"/>
<polyline fill="none" stroke="#262626" stroke-width="0.5" stroke-linecap="butt" stroke-linejoin="miter" points="362.669,254.04 362.669,255.906"/>
<polyline fill="none" stroke="#262626" stroke-width="0.5" stroke-linecap="butt" stroke-linejoin="miter" points="390.016,384.48 390.016,382.614"/>
<polyline fill="none" stroke="#262626" stroke-width="0.5" stroke-linecap="butt" stroke-linejoin="miter" points="390.016,254.04 390.016,255.906"/>
<polyline fill="none" stroke="#262626" stroke-width="0.5" stroke-linecap="butt" stroke-linejoin="miter" points="417.363,384.48 417.363,382.614"/>
<polyline fill="none" stroke="#262626" stroke-width="0.5" stroke-linecap="butt" stroke-linejoin="miter" points="417.363,254.04 417.363,255.906"/>
<polyline fill="none" stroke="#262626" stroke-width="0.5" stroke-linecap="butt" stroke-linejoin="miter" points="444.709,384.48 444.709,382.614"/>
<polyline fill="none" stroke="#262626" stroke-width="0.5" stroke-linecap="butt" stroke-linejoin="miter" points="444.709,254.04 444.709,255.906"/>
<polyline fill="none" stroke="#262626" stroke-width="0.5" stroke-linecap="butt" stroke-linejoin="miter" points="472.056,384.48 472.056,382.614"/>
<polyline fill="none" stroke="#262626" stroke-width="0.5" stroke-linecap="butt" stroke-linejoin="miter" points="472.056,254.04 472.056,255.906"/>
<polyline fill="none" stroke="#262626" stroke-width="0.5" stroke-linecap="butt" stroke-linejoin="miter" points="499.403,384.48 499.403,382.614"/>
<polyline fill="none" stroke="#262626" stroke-width="0.5" stroke-linecap="butt" stroke-linejoin="miter" points="499.403,254.04 499.403,255.906"/>
<text xml:space="preserve" transform="translate(330.823,400.497) rotate(-0,4.5,-11)" font-family="FreeSans" font-weight="normal" font-style="normal" font-size="10"><tspan y="-1" fill="rgb(38,38,38)" x="0 3 ">-5</tspan></text>
<text xml:space="preserve" transform="translate(359.669,400.497) rotate(-0,3,-11)" font-family="FreeSans" font-weight="normal" font-style="normal" font-size="10"><tspan y="-1" fill="rgb(38,38,38)" x="0 ">0</tspan></text>
<text xml:space="preserve" transform="translate(387.016,400.497) rotate(-0,3,-11)" font-family="FreeSans" font-weight="normal" font-style="normal" font-size="10"><tspan y="-1" fill="rgb(38,38,38)" x="0 ">5</tspan></text>
<text xml:space="preserve" transform="translate(411.363,400.497) rotate(-0,6,-11)" font-family="FreeSans" font-weight="normal" font-style="normal" font-size="10"><tspan y="-1" fill="rgb(38,38,38)" x="0 6 ">10</tspan></text>
<text xml:space="preserve" transform="translate(438.709,400.497) rotate(-0,6,-11)" font-family="FreeSans" font-weight="normal" font-style="normal" font-size="10"><tspan y="-1" fill="rgb(38,38,38)" x="0 6 ">15</tspan></text>
<text xml:space="preserve" transform="translate(466.056,400.497) rotate(-0,6,-11)" font-family="FreeSans" font-weight="normal" font-style="normal" font-size="10"><tspan y="-1" fill="rgb(38,38,38)" x="0 6 ">20</tspan></text>
<text xml:space="preserve" transform="translate(493.403,400.497) rotate(-0,6,-11)" font-family="FreeSans" font-weight="normal" font-style="normal" font-size="10"><tspan y="-1" fill="rgb(38,38,38)" x="0 6 ">25</tspan></text>
<polyline fill="none" stroke="#262626" stroke-width="0.5" stroke-linecap="butt" stroke-linejoin="miter" points="335.323,384.48 337.182,384.48"/>
<polyline fill="none" stroke="#262626" stroke-width="0.5" stroke-linecap="butt" stroke-linejoin="miter" points="521.28,384.48 519.421,384.48"/>
<polyline fill="none" stroke="#262626" stroke-width="0.5" stroke-linecap="butt" stroke-linejoin="miter" points="335.323,358.392 337.182,358.392"/>
<polyline fill="none" stroke="#262626" stroke-width="0.5" stroke-linecap="butt" stroke-linejoin="miter" points="521.28,358.392 519.421,358.392"/>
<polyline fill="none" stroke="#262626" stroke-width="0.5" stroke-linecap="butt" stroke-linejoin="miter" points="335.323,332.304 337.182,332.304"/>
<polyline fill="none" stroke="#262626" stroke-width="0.5" stroke-linecap="butt" stroke-linejoin="miter" points="521.28,332.304 519.421,332.304"/>
<polyline fill="none" stroke="#262626" stroke-width="0.5" stroke-linecap="butt" stroke-linejoin="miter" points="335.323,306.216 337.182,306.216"/>
<polyline fill="none" stroke="#262626" stroke-width="0.5" stroke-linecap="butt" stroke-linejoin="miter" points="521.28,306.216 519.421,306.216"/>
<polyline fill="none" stroke="#262626" stroke-width="0.5" stroke-linecap="butt" stroke-linejoin="miter" points="335.323,280.128 337.182,280.128"/>
<polyline fill="none" stroke="#262626" stroke-width="0.5" stroke-linecap="butt" stroke-linejoin="miter" points="521.28,280.128 519.421,280.128"/>
<polyline fill="none" stroke="#262626" stroke-width="0.5" stroke-linecap="butt" stroke-linejoin="miter" points="335.323,254.04 337.182,254.04"/>
<polyline fill="none" stroke="#262626" stroke-width="0.5" stroke-linecap="butt" stroke-linejoin="miter" points="521.28,254.04 519.421,254.04"/>
<text xml:space="preserve" transform="translate(324.324,389.98) rotate(-0,6,-5.5)" font-family="FreeSans" font-weight="normal" font-style="normal" font-size="10"><tspan y="-1" fill="rgb(38,38,38)" x="0 ">0</tspan></text>
<text xml:space="preserve" transform="translate(315.324,363.892) rotate(-0,15,-5.5)" font-family="FreeSans" font-weight="normal" font-style="normal" font-size="10"><tspan y="-1" fill="rgb(38,38,38)" x="0 6 9 ">0.2</tspan></text>
<text xml:space="preserve" transform="translate(315.324,337.804) rotate(-0,15,-5.5)" font-family="FreeSans" font-weight="normal" font-style="normal" font-size="10"><tspan y="-1" fill="rgb(38,38,38)" x="0 6 9 ">0.4</tspan></text>
<text xml:space="preserve" transform="translate(315.324,311.716) rotate(-0,15,-5.5)" font-family="FreeSans" font-weight="normal" font-style="normal" font-size="10"><tspan y="-1" fill="rgb(38,38,38)" x="0 6 9 ">0.6</tspan></text>
<text xml:space="preserve" transform="translate(315.324,285.628) rotate(-0,15,-5.5)" font-family="FreeSans" font-weight="normal" font-style="normal" font-size="10"><tspan y="-1" fill="rgb(38,38,38)" x="0 6 9 ">0.8</tspan></text>
<text xml:space="preserve" transform="translate(324.324,259.54) rotate(-0,6,-5.5)" font-family="FreeSans" font-weight="normal" font-style="normal" font-size="10"><tspan y="-1" fill="rgb(38,38,38)" x="0 ">1</tspan></text>
<polyline fill="none" stroke="#262626" stroke-width="0.5" stroke-linecap="square" stroke-linejoin="miter" stroke-dasharray="16,0" points="335.323,384.48 521.28,384.48"/>
<polyline fill="none" stroke="#262626" stroke-width="0.5" stroke-linecap="square" stroke-linejoin="miter" stroke-dasharray="16,0" points="335.323,254.04 521.28,254.04"/>
<polyline fill="none" stroke="#262626" stroke-width="0.5" stroke-linecap="square" stroke-linejoin="miter" stroke-dasharray="16,0" points="335.323,384.48 335.323,254.04"/>
<polyline fill="none" stroke="#262626" stroke-width="0.5" stroke-linecap="square" stroke-linejoin="miter" stroke-dasharray="16,0" points="521.28,384.48 521.28,254.04"/>
<text xml:space="preserve" transform="translate(358.801,244.04) rotate(-0,69.5,0)" font-family="Times New Roman" font-weight="bold" font-style="normal" font-size="12"><tspan y="-2" fill="rgb(0,0,0)" x="0 7 14 20 23 29 33 36 41 47 53 58 63 69 75 80 83 89 92 98 101 106 112 116 121 124 130 133 ">p=0.7: coverage 1 x rate 0.7</tspan></text>
<text xml:space="preserve" transform="translate(416.301,414.497) rotate(-0,12,-14)" font-family="Times New Roman" font-weight="normal" font-style="normal" font-size="12"><tspan y="-2" fill="rgb(38,38,38)" x="0 7 10 19 ">Time</tspan></text>
<polyline fill="none" stroke="#0071bc" stroke-width="2" stroke-linecap="butt" stroke-linejoin="round" points="335.137,361.364 335.323,361.362 336.417,361.348 337.511,361.341 338.604,361.335 339.698,361.326 340.792,361.313 341.886,361.305 342.98,361.292 344.074,361.284 345.168,361.279 346.262,361.267 347.355,361.249 348.449,361.236 349.543,361.221 350.637,361.208 351.731,361.198 352.825,361.182 353.919,361.163 355.012,361.147 356.106,361.136 357.2,361.121 358.294,361.108 359.388,361.099 360.482,361.076 361.576,361.061 362.669,361.057 363.763,360.632 364.857,357.626 365.951,351.022 367.045,342.501 368.139,334.715 369.233,328.971 370.327,325.277 371.42,323.022 372.514,322.248 373.608,322.276 374.702,323.263 375.796,324.812 376.89,326.741 377.984,329.035 379.077,331.275 380.171,333.928 381.265,336.573 382.359,339.395 383.453,341.977 384.547,344.761 385.641,347.254 386.735,349.705 387.828,352.101 388.922,354.378 390.016,356.675 391.11,358.766 392.204,360.821 393.298,362.648 394.392,364.331 395.485,366.061 396.579,367.672 397.673,369.161 398.767,370.523 399.861,371.793 400.955,372.825 402.049,373.934 403.143,374.841 404.236,375.675 405.33,376.449 406.424,377.203 407.518,377.875 408.612,378.462 409.706,379.043 410.8,379.638 411.893,380.086 412.987,380.515 414.081,380.948 415.175,381.279 416.269,381.609 417.363,381.901 418.457,381.833 419.55,381.841 420.644,381.742 421.738,381.625 422.832,381.498 423.926,381.318 425.02,381.092 426.114,380.92 427.208,380.665 428.301,380.41 429.395,380.178 430.489,379.912 431.583,379.635 432.677,379.368 433.771,379.158 434.865,378.985 435.958,378.893 437.052,378.788 438.146,378.751 439.24,378.751 440.334,378.752 441.428,378.747 442.522,378.748 443.616,378.759 444.709,378.764 445.803,378.765 446.897,378.771 447.991,378.767 449.085,378.765 450.179,378.767 451.273,378.767 452.366,378.765 453.46,378.765 454.554,378.756 455.648,378.755 456.742,378.756 457.836,378.754 458.93,378.748 460.023,378.747 461.117,378.742 462.211,378.741 463.305,378.741 464.399,378.733 465.493,378.725 466.587,378.722 467.681,378.721 468.774,378.722 469.868,378.721 470.962,378.717 472.056,378.716 473.15,378.711 474.244,378.707 475.338,378.705 476.431,378.704 477.525,378.703 478.619,378.703 479.713,378.702 480.807,378.699 481.901,378.696 482.995,378.694 484.089,378.69 485.182,378.69 486.276,378.688 487.37,378.687 488.464,378.681 489.558,378.678 490.652,378.675 491.746,378.675 492.839,378.674 493.933,378.674 495.027,378.673 496.121,378.672 497.215,378.673 498.309,378.668 499.403,378.665 500.497,378.662 501.59,378.661 502.684,378.661 503.778,378.662 504.872,378.653 505.966,378.651 507.06,378.649 508.154,378.647 509.247,378.645 510.341,378.643 511.435,378.64 512.529,378.634 513.623,378.632 514.717,378.63 515.811,378.628 516.905,378.626 517.998,378.623 519.092,378.621 520.186,378.617 521.28,378.613 521.466,378.613"/>
<polyline fill="none" stroke="#d85218" stroke-width="2" stroke-linecap="butt" stroke-linejoin="round" points="335.137,368.488 335.323,368.475 336.417,368.402 337.511,368.373 338.604,368.325 339.698,368.294 340.792,368.269 341.886,368.25 342.98,368.235 344.074,368.233 345.168,368.224 346.262,368.223 347.355,368.215 348.449,368.214 349.543,368.209 350.637,368.204 351.731,368.208 352.825,368.209 353.919,368.196 355.012,368.211 356.106,368.21 357.2,368.191 358.294,368.191 359.388,368.177 360.482,368.162 361.576,368.14 362.669,368.143 363.763,370.286 364.857,372.086 365.951,373.48 367.045,374.558 368.139,375.386 369.233,376.005 370.327,376.537 371.42,377.02 372.514,377.494 373.608,377.931 374.702,378.347 375.796,378.764 376.89,379.163 377.984,379.545 379.077,379.915 380.171,380.253 381.265,380.582 382.359,380.884 383.453,381.167 384.547,381.434 385.641,381.684 386.735,381.924 387.828,382.145 388.922,382.344 390.016,382.538 391.11,382.706 392.204,382.857 393.298,382.999 394.392,383.14 395.485,383.275 396.579,383.387 397.673,383.493 398.767,383.585 399.861,383.67 400.955,383.743 402.049,383.815 403.143,383.875 404.236,383.934 405.33,383.984 406.424,384.027 407.518,384.072 408.612,384.111 409.706,384.15 410.8,384.187 411.893,384.215 412.987,384.241 414.081,384.268 415.175,384.288 416.269,384.309 417.363,384.325 418.457,384.32 419.55,384.313 420.644,384.303 421.738,384.291 422.832,384.275 423.926,384.255 425.02,384.232 426.114,384.204 427.208,384.173 428.301,384.132 429.395,384.083 430.489,384.023 431.583,383.955 432.677,383.873 433.771,383.776 434.865,383.665 435.958,383.543 437.052,383.402 438.146,383.249 439.24,383.084 440.334,382.905 441.428,382.723 442.522,382.538 443.616,382.345 444.709,382.153 445.803,381.963 446.897,381.785 447.991,381.62 449.085,381.451 450.179,381.313 451.273,381.19 452.366,381.08 453.46,380.986 454.554,380.897 455.648,380.825 456.742,380.756 457.836,380.702 458.93,380.648 460.023,380.609 461.117,380.576 462.211,380.547 463.305,380.528 464.399,380.506 465.493,380.495 466.587,380.487 467.681,380.482 468.774,380.483 469.868,380.479 470.962,380.476 472.056,380.475 473.15,380.478 474.244,380.465 475.338,380.469 476.431,380.457 477.525,380.452 478.619,380.449 479.713,380.448 480.807,380.439 481.901,380.436 482.995,380.433 484.089,380.425 485.182,380.417 486.276,380.421 487.37,380.423 488.464,380.425 489.558,380.422 490.652,380.417 491.746,380.418 492.839,380.422 493.933,380.428 495.027,380.42 496.121,380.418 497.215,380.423 498.309,380.421 499.403,380.427 500.497,380.428 501.59,380.432 502.684,380.434 503.778,380.429 504.872,380.427 505.966,380.426 507.06,380.425 508.154,380.429 509.247,380.424 510.341,380.424 511.435,380.428 512.529,380.43 513.623,380.42 514.717,380.408 515.811,380.403 516.905,380.402 517.998,380.397 519.092,380.396 520.186,380.396 521.28,380.393 521.466,380.392"/>
<polyline fill="none" stroke="#000000" stroke-width="0.5" stroke-linecap="butt" stroke-linejoin="round" stroke-dasharray="4,4,4,4" points="362.669,384.48 362.669,253.91"/>
<polyline fill="none" stroke="#000000" stroke-width="0.5" stroke-linecap="butt" stroke-linejoin="round" stroke-dasharray="4,4,4,4" points="417.363,384.48 417.363,253.91"/>
</g>
</g>
</svg>
